# xmcd CD database file
#
# Track frame offsets:
#	150
#	15503
#	38169
#	53872
#	67432
#	88092
#	99661
#	114878
#	133720
#	150187
#	166090
#	184622
#	198366
#
# Disc length: 2876 seconds
#
# Revision: 0
# Processed by: cddbd v1.5.2PL0 Copyright (c) Steve Scherf et al.
# Submitted via: CDex 1.51
#
DISCID=a20b3a0d
DTITLE=Eric Clapton - Me And Mr. Johnson
DYEAR=2004
DGENRE=Blues
TTITLE0=When You Got A Good Friend
TTITLE1=Little Queen Of Spades
TTITLE2=They're Red Hot
TTITLE3=Me And The Devil Blues
TTITLE4=Traveling Riverside Blues
TTITLE5=Stop Breaking Down
TTITLE6=Milkcow's Calf Blues
TTITLE7=Kind Hearted Woman Blues
TTITLE8=Come On In My Kitchen
TTITLE9=If I Had Possession Over Judgement Day
TTITLE10=Love In Vain
TTITLE11=32-20 Blues
TTITLE12=Hell Hound On My Trail
EXTD=YEAR: 2004
EXTT0=
EXTT1=
EXTT2=
EXTT3=
EXTT4=
EXTT5=
EXTT6=
EXTT7=
EXTT8=
EXTT9=
EXTT10=
EXTT11=
EXTT12=
PLAYORDER=
